<?xml version="1.0" encoding="UTF-8" standalone="no"?>
<!DOCTYPE svg PUBLIC "-//W3C//DTD SVG 1.1//EN" "http://www.w3.org/Graphics/SVG/1.1/DTD/svg11.dtd">
<svg width="100%" height="100%" viewBox="0 0 465 465" version="1.1" xmlns="http://www.w3.org/2000/svg" xmlns:xlink="http://www.w3.org/1999/xlink" xml:space="preserve" xmlns:serif="http://www.serif.com/" style="fill-rule:evenodd;clip-rule:evenodd;stroke-linejoin:round;stroke-miterlimit:2;">
    <g id="align_quad">
        <path id="align_quad_shape" d="M465,0.183L465,464.817L0.365,464.817L0.365,0.183L465,0.183ZM463.809,1.374L1.557,1.374L1.557,463.625L463.809,463.625L463.809,1.374Z" style="fill:#c9c9ff;"/>
        <text id="align_quad_right" x="397.286px" y="235.935px" style="font-family:'Consolas', monospace;font-size:14px;fill:#fff;">Right X+</text>
        <text id="align_quad_left" x="5.369px" y="237.309px" style="font-family:'Consolas', monospace;font-size:14px;fill:#fff;">Left X-</text>
        <text id="align_quad_back" x="206.599px" y="19.593px" style="font-family:'Consolas', monospace;font-size:14px;fill:#fff;">Back Y+</text>
        <text id="align_quad_front" x="206.599px" y="454.019px" style="font-family:'Consolas', monospace;font-size:14px;fill:#fff;">Front Y-</text>
        <text id="align_quad_topXY" x="13.68px" y="18.209px" style="font-family:'Consolas', monospace;font-size:14.296px;fill:#fff;">TOP (XY)</text>
    </g>
    <g id="align">
        <g id="align_Y">
            <g id="align_Y_Xneg">
                <path id="align_Y_Xneg_work" d="M88.067,32.5L138.067,32.5L138.067,432.5L88.067,432.5L88.067,32.5Z" style="fill:#1e293b;stroke:#475569;stroke-width:6px;"/>
                <path id="align_Y_Xneg_probepath1" d="M232.232,319.63L139.874,319.63" style="fill:none;fill-rule:nonzero;stroke:#3b82f6;stroke-width:4px;stroke-linejoin:miter;stroke-miterlimit:4;"/>
                <path id="align_Y_Xneg_retractpath1" d="M139.058,319.63L167.613,319.63" style="fill:none;stroke:#ff0;stroke-width:2.6px;stroke-linejoin:miter;stroke-miterlimit:1.5;"/>
                <path id="align_Y_Xneg_probepath2" d="M232.232,151.977L139.874,151.977" style="fill:none;fill-rule:nonzero;stroke:#3b82f6;stroke-width:4px;stroke-linejoin:miter;stroke-miterlimit:4;"/>
                <path id="align_Y_Xneg_retractpath2" d="M139.058,151.977L167.613,151.977" style="fill:none;stroke:#ff0;stroke-width:2.6px;stroke-linejoin:miter;stroke-miterlimit:1.5;"/>
                <path id="align_Y_Xneg_jogpath" d="M167.613,319.63C230.258,265.648 239.178,213.123 232.5,151.977" style="fill:none;stroke:#ff9a0d;stroke-width:4px;stroke-linecap:round;stroke-miterlimit:1.5;"/>
                <g id="align_Y_Xneg_miniprobe">
                    <path d="M220.732,319.63C220.732,313.283 225.885,308.13 232.232,308.13C238.579,308.13 243.732,313.283 243.732,319.63C243.732,325.977 238.579,331.13 232.232,331.13C225.885,331.13 220.732,325.977 220.732,319.63Z" style="fill:#ef4444;fill-opacity:0.3;" id="align_Y_Xneg_miniprobe_path1"/>
                    <path d="M222.649,319.63C222.649,314.341 226.943,310.047 232.232,310.047C237.521,310.047 241.815,314.341 241.815,319.63C241.815,324.919 237.521,329.213 232.232,329.213C226.943,329.213 222.649,324.919 222.649,319.63Z" style="fill:url(#alignViz___Radial1);" id="align_Y_Xneg_miniprobe_path2"/>
                    <path d="M231.753,322.505C231.753,320.653 233.256,319.15 235.107,319.15C236.958,319.15 238.461,320.653 238.461,322.505C238.461,324.356 236.958,325.859 235.107,325.859C233.256,325.859 231.753,324.356 231.753,322.505Z" style="fill:#fff;fill-opacity:0.5;" id="align_Y_Xneg_miniprobe_path3"/>
                </g>
                <path id="align_Y_Xneg_wcs" d="M136.067,32.5L140.067,32.5L140.067,40.833L136.067,40.833L136.067,32.5ZM136.067,49.167L140.067,49.167L140.067,65.833L136.067,65.833L136.067,49.167ZM136.067,74.167L140.067,74.167L140.067,90.834L136.067,90.834L136.067,74.167ZM136.067,99.166L140.067,99.166L140.067,115.833L136.067,115.833L136.067,99.166ZM136.067,124.167L140.067,124.167L140.067,140.833L136.067,140.833L136.067,124.167ZM136.067,149.166L140.067,149.166L140.067,165.833L136.067,165.833L136.067,149.166ZM136.067,174.167L140.067,174.167L140.067,190.833L136.067,190.833L136.067,174.167ZM136.067,199.167L140.067,199.167L140.067,215.833L136.067,215.833L136.067,199.167ZM136.067,224.167L140.067,224.167L140.067,240.834L136.067,240.834L136.067,224.167ZM136.067,249.167L140.067,249.167L140.067,265.833L136.067,265.833L136.067,249.167ZM136.067,274.167L140.067,274.167L140.067,290.833L136.067,290.833L136.067,274.167ZM136.067,299.166L140.067,299.166L140.067,315.833L136.067,315.833L136.067,299.166ZM136.067,324.166L140.067,324.166L140.067,340.833L136.067,340.833L136.067,324.166ZM136.067,349.167L140.067,349.167L140.067,365.833L136.067,365.833L136.067,349.167ZM136.067,374.166L140.067,374.166L140.067,390.833L136.067,390.833L136.067,374.166ZM136.067,399.167L140.067,399.167L140.067,415.833L136.067,415.833L136.067,399.167ZM136.067,424.167L140.067,424.167L140.067,432.5L136.067,432.5L136.067,424.167Z" style="fill:#f40000;"/>
            </g>
            <g id="align_Y_Xpos">
                <path id="align_Y_Xpos_work" d="M376.466,32.5L326.466,32.5L326.466,432.5L376.466,432.5L376.466,32.5Z" style="fill:#1e293b;stroke:#475569;stroke-width:6px;"/>
                <path id="align_Y_Xpos_probepath1" d="M232.301,319.63L324.659,319.63" style="fill:none;fill-rule:nonzero;stroke:#3b82f6;stroke-width:4px;stroke-linejoin:miter;stroke-miterlimit:4;"/>
                <path id="align_Y_Xpos_retractpath1" d="M325.475,319.63L296.92,319.63" style="fill:none;stroke:#ff0;stroke-width:2.6px;stroke-linejoin:miter;stroke-miterlimit:1.5;"/>
                <path id="align_Y_Xpos_probepath2" d="M232.301,151.977L324.659,151.977" style="fill:none;fill-rule:nonzero;stroke:#3b82f6;stroke-width:4px;stroke-linejoin:miter;stroke-miterlimit:4;"/>
                <path id="align_Y_Xpos_retractpath2" d="M325.475,151.977L296.92,151.977" style="fill:none;stroke:#ff0;stroke-width:2.6px;stroke-linejoin:miter;stroke-miterlimit:1.5;"/>
                <path id="align_Y_Xpos_jogpath" d="M296.92,319.63C234.274,265.648 225.354,213.123 232.033,151.977" style="fill:none;stroke:#ff9a0d;stroke-width:4px;stroke-linecap:round;stroke-miterlimit:1.5;"/>
                <g id="align_Y_Xpos_miniprobe">
                    <path d="M243.801,319.63C243.801,313.283 238.648,308.13 232.301,308.13C225.954,308.13 220.801,313.283 220.801,319.63C220.801,325.977 225.954,331.13 232.301,331.13C238.648,331.13 243.801,325.977 243.801,319.63Z" style="fill:#ef4444;fill-opacity:0.3;" id="align_Y_Xpos_miniprobe_path1"/>
                    <path d="M241.884,319.63C241.884,314.341 237.59,310.047 232.301,310.047C227.012,310.047 222.718,314.341 222.718,319.63C222.718,324.919 227.012,329.213 232.301,329.213C237.59,329.213 241.884,324.919 241.884,319.63Z" style="fill:url(#alignViz___Radial2);" id="align_Y_Xpos_miniprobe_path2"/>
                    <path d="M232.78,322.505C232.78,320.653 231.277,319.15 229.426,319.15C227.575,319.15 226.072,320.653 226.072,322.505C226.072,324.356 227.575,325.859 229.426,325.859C231.277,325.859 232.78,324.356 232.78,322.505Z" style="fill:#fff;fill-opacity:0.5;" id="align_Y_Xpos_miniprobe_path3"/>
                </g>
                <path id="align_Y_Xpos_wcs" d="M324.466,32.5L328.466,32.5L328.466,40.833L324.466,40.833L324.466,32.5ZM324.466,49.167L328.466,49.167L328.466,65.833L324.466,65.833L324.466,49.167ZM324.466,74.167L328.466,74.167L328.466,90.834L324.466,90.834L324.466,74.167ZM324.466,99.166L328.466,99.166L328.466,115.833L324.466,115.833L324.466,99.166ZM324.466,124.167L328.466,124.167L328.466,140.833L324.466,140.833L324.466,124.167ZM324.466,149.166L328.466,149.166L328.466,165.833L324.466,165.833L324.466,149.166ZM324.466,174.167L328.466,174.167L328.466,190.833L324.466,190.833L324.466,174.167ZM324.466,199.167L328.466,199.167L328.466,215.833L324.466,215.833L324.466,199.167ZM324.466,224.167L328.466,224.167L328.466,240.834L324.466,240.834L324.466,224.167ZM324.466,249.167L328.466,249.167L328.466,265.833L324.466,265.833L324.466,249.167ZM324.466,274.167L328.466,274.167L328.466,290.833L324.466,290.833L324.466,274.167ZM324.466,299.166L328.466,299.166L328.466,315.833L324.466,315.833L324.466,299.166ZM324.466,324.166L328.466,324.166L328.466,340.833L324.466,340.833L324.466,324.166ZM324.466,349.167L328.466,349.167L328.466,365.833L324.466,365.833L324.466,349.167ZM324.466,374.166L328.466,374.166L328.466,390.833L324.466,390.833L324.466,374.166ZM324.466,399.167L328.466,399.167L328.466,415.833L324.466,415.833L324.466,399.167ZM324.466,424.167L328.466,424.167L328.466,432.5L324.466,432.5L324.466,424.167Z" style="fill:#f40000;"/>
            </g>
        </g>
        <g id="align_X">
            <g id="align_X_Ypos">
                <rect id="align_X_Ypos_work" x="32.266" y="88.301" width="400" height="50" style="fill:#1e293b;stroke:#475569;stroke-width:6px;"/>
                <path id="align_X_Ypos_probepath1" d="M145.137,232.466L145.137,140.108" style="fill:none;fill-rule:nonzero;stroke:#3b82f6;stroke-width:4px;stroke-linejoin:miter;stroke-miterlimit:4;"/>
                <path id="align_X_Ypos_retractpath1" d="M145.137,139.292L145.137,167.847" style="fill:none;stroke:#ff0;stroke-width:2.6px;stroke-linejoin:miter;stroke-miterlimit:1.5;"/>
                <path id="align_X_Ypos_probepath2" d="M312.789,232.466L312.789,140.108" style="fill:none;fill-rule:nonzero;stroke:#3b82f6;stroke-width:4px;stroke-linejoin:miter;stroke-miterlimit:4;"/>
                <path id="align_X_Ypos_retractpath2" d="M312.789,139.292L312.789,167.847" style="fill:none;stroke:#ff0;stroke-width:2.6px;stroke-linejoin:miter;stroke-miterlimit:1.5;"/>
                <path id="align_X_Ypos_jogpath" d="M145.137,167.847C199.118,230.492 251.643,239.412 312.789,232.734" style="fill:none;stroke:#ff9a0d;stroke-width:4px;stroke-linecap:round;stroke-miterlimit:1.5;"/>
                <g id="align_X_Ypos_miniprobe">
                    <path d="M145.137,220.966C151.484,220.966 156.637,226.119 156.637,232.466C156.637,238.813 151.484,243.966 145.137,243.966C138.79,243.966 133.637,238.813 133.637,232.466C133.637,226.119 138.79,220.966 145.137,220.966Z" style="fill:#ef4444;fill-opacity:0.3;" id="align_X_Ypos_miniprobe_path1"/>
                    <path d="M145.137,222.883C150.426,222.883 154.72,227.177 154.72,232.466C154.72,237.755 150.426,242.049 145.137,242.049C139.848,242.049 135.554,237.755 135.554,232.466C135.554,227.177 139.848,222.883 145.137,222.883Z" style="fill:url(#alignViz___Radial3);" id="align_X_Ypos_miniprobe_path2"/>
                    <path d="M142.262,231.987C144.114,231.987 145.617,233.49 145.617,235.341C145.617,237.192 144.114,238.695 142.262,238.695C140.411,238.695 138.908,237.192 138.908,235.341C138.908,233.49 140.411,231.987 142.262,231.987Z" style="fill:#fff;fill-opacity:0.5;" id="align_X_Ypos_miniprobe_path3"/>
                </g>
                <path id="align_X_Ypos_wcs" d="M32.266,140.301L32.266,136.301L40.599,136.301L40.599,140.301L32.266,140.301ZM48.933,140.301L48.933,136.301L65.6,136.301L65.6,140.301L48.933,140.301ZM73.933,140.301L73.933,136.301L90.6,136.301L90.6,140.301L73.933,140.301ZM98.933,140.301L98.933,136.301L115.6,136.301L115.6,140.301L98.933,140.301ZM123.933,140.301L123.933,136.301L140.6,136.301L140.6,140.301L123.933,140.301ZM148.933,140.301L148.933,136.301L165.599,136.301L165.599,140.301L148.933,140.301ZM173.933,140.301L173.933,136.301L190.599,136.301L190.599,140.301L173.933,140.301ZM198.933,140.301L198.933,136.301L215.599,136.301L215.599,140.301L198.933,140.301ZM223.933,140.301L223.933,136.301L240.6,136.301L240.6,140.301L223.933,140.301ZM248.933,140.301L248.933,136.301L265.6,136.301L265.6,140.301L248.933,140.301ZM273.933,140.301L273.933,136.301L290.599,136.301L290.599,140.301L273.933,140.301ZM298.933,140.301L298.933,136.301L315.599,136.301L315.599,140.301L298.933,140.301ZM323.932,140.301L323.932,136.301L340.599,136.301L340.599,140.301L323.932,140.301ZM348.933,140.301L348.933,136.301L365.6,136.301L365.6,140.301L348.933,140.301ZM373.933,140.301L373.933,136.301L390.599,136.301L390.599,140.301L373.933,140.301ZM398.933,140.301L398.933,136.301L415.6,136.301L415.6,140.301L398.933,140.301ZM423.933,140.301L423.933,136.301L432.266,136.301L432.266,140.301L423.933,140.301Z" style="fill:#f40000;"/>
            </g>
            <g id="align_X_Yneg">
                <rect id="align_X_Yneg_work" x="32.266" y="326.699" width="400" height="50" style="fill:#1e293b;stroke:#475569;stroke-width:6px;"/>
                <path id="align_X_Yneg_probepath1" d="M145.137,232.534L145.137,324.892" style="fill:none;fill-rule:nonzero;stroke:#3b82f6;stroke-width:4px;stroke-linejoin:miter;stroke-miterlimit:4;"/>
                <path id="align_X_Yneg_retractpath1" d="M145.137,325.708L145.137,297.153" style="fill:none;stroke:#ff0;stroke-width:2.6px;stroke-linejoin:miter;stroke-miterlimit:1.5;"/>
                <path id="align_X_Yneg_probepath2" d="M312.789,232.534L312.789,324.892" style="fill:none;fill-rule:nonzero;stroke:#3b82f6;stroke-width:4px;stroke-linejoin:miter;stroke-miterlimit:4;"/>
                <path id="align_X_Yneg_retractpath2" d="M312.789,325.708L312.789,297.153" style="fill:none;stroke:#ff0;stroke-width:2.6px;stroke-linejoin:miter;stroke-miterlimit:1.5;"/>
                <path id="align_X_Yneg_jogpath" d="M145.137,297.153C199.118,234.508 251.643,225.588 312.789,232.266" style="fill:none;stroke:#ff9a0d;stroke-width:4px;stroke-linecap:round;stroke-miterlimit:1.5;"/>
                <g id="align_X_Yneg_miniprobe">
                    <path d="M145.137,244.034C151.484,244.034 156.637,238.881 156.637,232.534C156.637,226.187 151.484,221.034 145.137,221.034C138.79,221.034 133.637,226.187 133.637,232.534C133.637,238.881 138.79,244.034 145.137,244.034Z" style="fill:#ef4444;fill-opacity:0.3;" id="align_X_Yneg_miniprobe_path1"/>
                    <path d="M145.137,242.117C150.426,242.117 154.72,237.823 154.72,232.534C154.72,227.245 150.426,222.951 145.137,222.951C139.848,222.951 135.554,227.245 135.554,232.534C135.554,237.823 139.848,242.117 145.137,242.117Z" style="fill:url(#alignViz___Radial4);" id="align_X_Yneg_miniprobe_path2"/>
                    <path d="M142.262,233.013C144.114,233.013 145.617,231.51 145.617,229.659C145.617,227.808 144.114,226.305 142.262,226.305C140.411,226.305 138.908,227.808 138.908,229.659C138.908,231.51 140.411,233.013 142.262,233.013Z" style="fill:#fff;fill-opacity:0.5;" id="align_X_Yneg_miniprobe_path3"/>
                </g>
                <path id="align_X_Yneg_wcs" d="M32.266,328.699L32.266,324.699L40.599,324.699L40.599,328.699L32.266,328.699ZM48.933,328.699L48.933,324.699L65.6,324.699L65.6,328.699L48.933,328.699ZM73.933,328.699L73.933,324.699L90.6,324.699L90.6,328.699L73.933,328.699ZM98.933,328.699L98.933,324.699L115.6,324.699L115.6,328.699L98.933,328.699ZM123.933,328.699L123.933,324.699L140.6,324.699L140.6,328.699L123.933,328.699ZM148.933,328.699L148.933,324.699L165.599,324.699L165.599,328.699L148.933,328.699ZM173.933,328.699L173.933,324.699L190.599,324.699L190.599,328.699L173.933,328.699ZM198.933,328.699L198.933,324.699L215.599,324.699L215.599,328.699L198.933,328.699ZM223.933,328.699L223.933,324.699L240.6,324.699L240.6,328.699L223.933,328.699ZM248.933,328.699L248.933,324.699L265.6,324.699L265.6,328.699L248.933,328.699ZM273.933,328.699L273.933,324.699L290.599,324.699L290.599,328.699L273.933,328.699ZM298.933,328.699L298.933,324.699L315.599,324.699L315.599,328.699L298.933,328.699ZM323.932,328.699L323.932,324.699L340.599,324.699L340.599,328.699L323.932,328.699ZM348.933,328.699L348.933,324.699L365.6,324.699L365.6,328.699L348.933,328.699ZM373.933,328.699L373.933,324.699L390.599,324.699L390.599,328.699L373.933,328.699ZM398.933,328.699L398.933,324.699L415.6,324.699L415.6,328.699L398.933,328.699ZM423.933,328.699L423.933,324.699L432.266,324.699L432.266,328.699L423.933,328.699Z" style="fill:#f40000;"/>
            </g>
        </g>
    </g>
    <defs>
        <radialGradient id="alignViz___Radial1" cx="0" cy="0" r="1" gradientUnits="userSpaceOnUse" gradientTransform="matrix(0,-9.583486,-9.583486,0,234.148514,321.546265)"><stop offset="0" style="stop-color:#ff7e7e;stop-opacity:1"/><stop offset="0.7" style="stop-color:#ef4444;stop-opacity:1"/><stop offset="1" style="stop-color:#8a1c1c;stop-opacity:1"/></radialGradient>
        <radialGradient id="alignViz___Radial2" cx="0" cy="0" r="1" gradientUnits="userSpaceOnUse" gradientTransform="matrix(-0,-9.583486,9.583486,0,230.384098,321.546265)"><stop offset="0" style="stop-color:#ff7e7e;stop-opacity:1"/><stop offset="0.7" style="stop-color:#ef4444;stop-opacity:1"/><stop offset="1" style="stop-color:#8a1c1c;stop-opacity:1"/></radialGradient>
        <radialGradient id="alignViz___Radial3" cx="0" cy="0" r="1" gradientUnits="userSpaceOnUse" gradientTransform="matrix(9.583486,-0,-0,-9.583486,143.220041,234.382208)"><stop offset="0" style="stop-color:#ff7e7e;stop-opacity:1"/><stop offset="0.7" style="stop-color:#ef4444;stop-opacity:1"/><stop offset="1" style="stop-color:#8a1c1c;stop-opacity:1"/></radialGradient>
        <radialGradient id="alignViz___Radial4" cx="0" cy="0" r="1" gradientUnits="userSpaceOnUse" gradientTransform="matrix(9.583486,-0,0,9.583486,143.220041,230.617792)"><stop offset="0" style="stop-color:#ff7e7e;stop-opacity:1"/><stop offset="0.7" style="stop-color:#ef4444;stop-opacity:1"/><stop offset="1" style="stop-color:#8a1c1c;stop-opacity:1"/></radialGradient>
    </defs>
</svg>
