<?xml version="1.0" encoding="UTF-8" standalone="no"?>
<!DOCTYPE svg PUBLIC "-//W3C//DTD SVG 1.1//EN" "http://www.w3.org/Graphics/SVG/1.1/DTD/svg11.dtd">
<svg width="100%" height="100%" viewBox="0 0 465 465" version="1.1" xmlns="http://www.w3.org/2000/svg" xmlns:xlink="http://www.w3.org/1999/xlink" xml:space="preserve" xmlns:serif="http://www.serif.com/" style="fill-rule:evenodd;clip-rule:evenodd;stroke-linejoin:round;stroke-miterlimit:2;">
    <g id="edge_quad">
        <path id="edge_quad_shape" d="M465,0.183L465,464.817L0.365,464.817L0.365,0.183L465,0.183ZM463.809,1.374L1.557,1.374L1.557,463.625L463.809,463.625L463.809,1.374Z" style="fill:#c9c9ff;"/>
        <text id="edge_quad_right" x="397.286px" y="235.935px" style="font-family:'Consolas', monospace;font-size:14px;fill:#fff;">Right X+</text>
        <text id="edge_quad_left" x="5.369px" y="237.309px" style="font-family:'Consolas', monospace;font-size:14px;fill:#fff;">Left X-</text>
        <text id="edge_quad_back" x="206.599px" y="19.593px" style="font-family:'Consolas', monospace;font-size:14px;fill:#fff;">Back Y+</text>
        <text id="edge_quad_front" x="206.599px" y="454.019px" style="font-family:'Consolas', monospace;font-size:14px;fill:#fff;">Front Y-</text>
        <text id="edge_quad_topXY" x="13.68px" y="18.209px" style="font-family:'Consolas', monospace;font-size:14.296px;fill:#fff;">TOP (XY)</text>
    </g>
    <g id="edge">
        <g id="edge_Y">
            <g id="edge_Y_neg">
                <rect id="edge_Y_neg_work" x="36.015" y="325.2" width="400" height="50" style="fill:#1e293b;stroke:#475569;stroke-width:6px;"/>
                <path id="edge_Y_neg_probepath" d="M232.328,232.596L232.328,324.645" style="fill:none;fill-rule:nonzero;stroke:#3b82f6;stroke-width:4px;stroke-linejoin:miter;stroke-miterlimit:4;"/>
                <path id="edge_Y_neg_retractpath" d="M232.021,324.549L232.021,296.307" style="fill:none;stroke:#ff0;stroke-width:2.59px;stroke-linejoin:miter;stroke-miterlimit:1.5;"/>
                <g id="edge_Y_neg_miniprobe">
                    <path d="M220.732,232.596C220.732,226.249 225.885,221.096 232.232,221.096C238.579,221.096 243.732,226.249 243.732,232.596C243.732,238.943 238.579,244.096 232.232,244.096C225.885,244.096 220.732,238.943 220.732,232.596Z" style="fill:#ef4444;fill-opacity:0.3;" id="edge_Y_neg_miniprobe_path1"/>
                    <path d="M222.649,232.596C222.649,227.307 226.943,223.013 232.232,223.013C237.521,223.013 241.815,227.307 241.815,232.596C241.815,237.885 237.521,242.179 232.232,242.179C226.943,242.179 222.649,237.885 222.649,232.596Z" style="fill:url(#edgeViz___Radial1);" id="edge_Y_neg_miniprobe_path2"/>
                    <path d="M231.753,235.471C231.753,233.619 233.256,232.116 235.107,232.116C236.958,232.116 238.461,233.619 238.461,235.471C238.461,237.322 236.958,238.825 235.107,238.825C233.256,238.825 231.753,237.322 231.753,235.471Z" style="fill:#fff;fill-opacity:0.5;" id="edge_Y_neg_miniprobe_path3"/>
                </g>
                <path id="edge_Y_pos_wcs" d="M32.5,327.2L32.5,323.2L40.833,323.2L40.833,327.2L32.5,327.2ZM49.167,327.2L49.167,323.2L65.833,323.2L65.833,327.2L49.167,327.2ZM74.167,327.2L74.167,323.2L90.834,323.2L90.834,327.2L74.167,327.2ZM99.166,327.2L99.166,323.2L115.833,323.2L115.833,327.2L99.166,327.2ZM124.167,327.2L124.167,323.2L140.833,323.2L140.833,327.2L124.167,327.2ZM149.166,327.2L149.166,323.2L165.833,323.2L165.833,327.2L149.166,327.2ZM174.167,327.2L174.167,323.2L190.833,323.2L190.833,327.2L174.167,327.2ZM199.167,327.2L199.167,323.2L215.833,323.2L215.833,327.2L199.167,327.2ZM224.167,327.2L224.167,323.2L240.834,323.2L240.834,327.2L224.167,327.2ZM249.167,327.2L249.167,323.2L265.833,323.2L265.833,327.2L249.167,327.2ZM274.167,327.2L274.167,323.2L290.833,323.2L290.833,327.2L274.167,327.2ZM299.166,327.2L299.166,323.2L315.833,323.2L315.833,327.2L299.166,327.2ZM324.166,327.2L324.166,323.2L340.833,323.2L340.833,327.2L324.166,327.2ZM349.167,327.2L349.167,323.2L365.833,323.2L365.833,327.2L349.167,327.2ZM374.166,327.2L374.166,323.2L390.833,323.2L390.833,327.2L374.166,327.2ZM399.167,327.2L399.167,323.2L415.833,323.2L415.833,327.2L399.167,327.2ZM424.167,327.2L424.167,323.2L432.5,323.2L432.5,327.2L424.167,327.2Z" style="fill:#f40000;"/>
            </g>
            <g id="edge_Y_pos">
                <rect id="edge_Y_pos_work" x="35.919" y="90.547" width="400" height="50" style="fill:#1e293b;stroke:#475569;stroke-width:6px;"/>
                <path id="edge_Y_pos_probepath" d="M232.5,232.596L232.5,140.547" style="fill:none;fill-rule:nonzero;stroke:#3b82f6;stroke-width:4px;stroke-linejoin:miter;stroke-miterlimit:4;"/>
                <path id="edge_Y_pos_retractpath" d="M232.711,140.547L232.711,168.789" style="fill:none;stroke:#ff0;stroke-width:2.59px;stroke-linejoin:miter;stroke-miterlimit:1.5;"/>
                <g id="edge_Y_pos_miniprobe">
                    <path d="M221.211,232.596C221.211,226.249 226.364,221.096 232.711,221.096C239.058,221.096 244.211,226.249 244.211,232.596C244.211,238.943 239.058,244.096 232.711,244.096C226.364,244.096 221.211,238.943 221.211,232.596Z" style="fill:#ef4444;fill-opacity:0.3;" id="edge_Y_pos_miniprobe_path1"/>
                    <path d="M223.128,232.596C223.128,227.307 227.422,223.013 232.711,223.013C238,223.013 242.294,227.307 242.294,232.596C242.294,237.885 238,242.179 232.711,242.179C227.422,242.179 223.128,237.885 223.128,232.596Z" style="fill:url(#edgeViz___Radial2);" id="edge_Y_pos_miniprobe_path2"/>
                    <path d="M232.232,235.471C232.232,233.619 233.735,232.116 235.586,232.116C237.437,232.116 238.94,233.619 238.94,235.471C238.94,237.322 237.437,238.825 235.586,238.825C233.735,238.825 232.232,237.322 232.232,235.471Z" style="fill:#fff;fill-opacity:0.5;" id="edge_Y_pos_miniprobe_path3"/>
                </g>
                <path id="edge_Y_pos_wcs1" serif:id="edge_Y_pos_wcs" d="M32.5,142.547L32.5,138.547L40.833,138.547L40.833,142.547L32.5,142.547ZM49.167,142.547L49.167,138.547L65.833,138.547L65.833,142.547L49.167,142.547ZM74.167,142.547L74.167,138.547L90.834,138.547L90.834,142.547L74.167,142.547ZM99.166,142.547L99.166,138.547L115.833,138.547L115.833,142.547L99.166,142.547ZM124.167,142.547L124.167,138.547L140.833,138.547L140.833,142.547L124.167,142.547ZM149.166,142.547L149.166,138.547L165.833,138.547L165.833,142.547L149.166,142.547ZM174.167,142.547L174.167,138.547L190.833,138.547L190.833,142.547L174.167,142.547ZM199.167,142.547L199.167,138.547L215.833,138.547L215.833,142.547L199.167,142.547ZM224.167,142.547L224.167,138.547L240.834,138.547L240.834,142.547L224.167,142.547ZM249.167,142.547L249.167,138.547L265.833,138.547L265.833,142.547L249.167,142.547ZM274.167,142.547L274.167,138.547L290.833,138.547L290.833,142.547L274.167,142.547ZM299.166,142.547L299.166,138.547L315.833,138.547L315.833,142.547L299.166,142.547ZM324.166,142.547L324.166,138.547L340.833,138.547L340.833,142.547L324.166,142.547ZM349.167,142.547L349.167,138.547L365.833,138.547L365.833,142.547L349.167,142.547ZM374.166,142.547L374.166,138.547L390.833,138.547L390.833,142.547L374.166,142.547ZM399.167,142.547L399.167,138.547L415.833,138.547L415.833,142.547L399.167,142.547ZM424.167,142.547L424.167,138.547L432.5,138.547L432.5,142.547L424.167,142.547Z" style="fill:#f40000;"/>
            </g>
        </g>
        <g id="edge_X">
            <g id="edge_X_pos">
                <rect id="edge_X_pos_work" x="335.625" y="32.5" width="50" height="400" style="fill:#1e293b;stroke:#475569;stroke-width:6px;"/>
                <path id="edge_X_pos_probepath" d="M242.451,232.5L334.809,232.5" style="fill:none;fill-rule:nonzero;stroke:#3b82f6;stroke-width:4px;stroke-linejoin:miter;stroke-miterlimit:4;"/>
                <path id="edge_X_pos_retractpath" d="M335.625,232.5L307.07,232.5" style="fill:none;stroke:#ff0;stroke-width:2.6px;stroke-linejoin:miter;stroke-miterlimit:1.5;"/>
                <g id="edge_X_pos_miniprobe">
                    <path d="M220.732,232.5C220.732,226.153 225.885,221 232.232,221C238.579,221 243.732,226.153 243.732,232.5C243.732,238.847 238.579,244 232.232,244C225.885,244 220.732,238.847 220.732,232.5Z" style="fill:#ef4444;fill-opacity:0.3;" id="edge_X_pos_miniprobe_path1"/>
                    <path d="M222.649,232.5C222.649,227.211 226.943,222.917 232.232,222.917C237.521,222.917 241.815,227.211 241.815,232.5C241.815,237.789 237.521,242.083 232.232,242.083C226.943,242.083 222.649,237.789 222.649,232.5Z" style="fill:url(#edgeViz___Radial3);" id="edge_X_pos_miniprobe_path2"/>
                    <path d="M231.753,235.375C231.753,233.523 233.256,232.02 235.107,232.02C236.958,232.02 238.461,233.523 238.461,235.375C238.461,237.226 236.958,238.729 235.107,238.729C233.256,238.729 231.753,237.226 231.753,235.375Z" style="fill:#fff;fill-opacity:0.5;" id="edge_X_pos_miniprobe_path3"/>
                </g>
                <path id="edge_X_pos_wcs" d="M333.625,32.5L337.625,32.5L337.625,40.833L333.625,40.833L333.625,32.5ZM333.625,49.167L337.625,49.167L337.625,65.833L333.625,65.833L333.625,49.167ZM333.625,74.167L337.625,74.167L337.625,90.834L333.625,90.834L333.625,74.167ZM333.625,99.166L337.625,99.166L337.625,115.833L333.625,115.833L333.625,99.166ZM333.625,124.167L337.625,124.167L337.625,140.833L333.625,140.833L333.625,124.167ZM333.625,149.166L337.625,149.166L337.625,165.833L333.625,165.833L333.625,149.166ZM333.625,174.167L337.625,174.167L337.625,190.833L333.625,190.833L333.625,174.167ZM333.625,199.167L337.625,199.167L337.625,215.833L333.625,215.833L333.625,199.167ZM333.625,224.167L337.625,224.167L337.625,240.834L333.625,240.834L333.625,224.167ZM333.625,249.167L337.625,249.167L337.625,265.833L333.625,265.833L333.625,249.167ZM333.625,274.167L337.625,274.167L337.625,290.833L333.625,290.833L333.625,274.167ZM333.625,299.166L337.625,299.166L337.625,315.833L333.625,315.833L333.625,299.166ZM333.625,324.166L337.625,324.166L337.625,340.833L333.625,340.833L333.625,324.166ZM333.625,349.167L337.625,349.167L337.625,365.833L333.625,365.833L333.625,349.167ZM333.625,374.166L337.625,374.166L337.625,390.833L333.625,390.833L333.625,374.166ZM333.625,399.167L337.625,399.167L337.625,415.833L333.625,415.833L333.625,399.167ZM333.625,424.167L337.625,424.167L337.625,432.5L333.625,432.5L333.625,424.167Z" style="fill:#f40000;"/>
            </g>
            <g id="edge_X_neg">
                <rect id="edge_X_neg_work" x="89.058" y="32.5" width="50" height="400" style="fill:#1e293b;stroke:#475569;stroke-width:6px;"/>
                <path id="edge_X_neg_probepath" d="M232.232,232.5L139.874,232.5" style="fill:none;fill-rule:nonzero;stroke:#3b82f6;stroke-width:4px;stroke-linejoin:miter;stroke-miterlimit:4;"/>
                <path id="edge_X_neg_retractpath" d="M139.058,232.5L167.613,232.5" style="fill:none;stroke:#ff0;stroke-width:2.6px;stroke-linejoin:miter;stroke-miterlimit:1.5;"/>
                <g id="edge_X_neg_miniprobe">
                    <path d="M220.732,232.5C220.732,226.153 225.885,221 232.232,221C238.579,221 243.732,226.153 243.732,232.5C243.732,238.847 238.579,244 232.232,244C225.885,244 220.732,238.847 220.732,232.5Z" style="fill:#ef4444;fill-opacity:0.3;" id="edge_X_neg_miniprobe_path1"/>
                    <path d="M222.649,232.5C222.649,227.211 226.943,222.917 232.232,222.917C237.521,222.917 241.815,227.211 241.815,232.5C241.815,237.789 237.521,242.083 232.232,242.083C226.943,242.083 222.649,237.789 222.649,232.5Z" style="fill:url(#edgeViz___Radial4);" id="edge_X_neg_miniprobe_path2"/>
                    <path d="M231.753,235.375C231.753,233.523 233.256,232.02 235.107,232.02C236.958,232.02 238.461,233.523 238.461,235.375C238.461,237.226 236.958,238.729 235.107,238.729C233.256,238.729 231.753,237.226 231.753,235.375Z" style="fill:#fff;fill-opacity:0.5;" id="edge_X_neg_miniprobe_path3"/>
                </g>
                <path id="edge_X_neg_wcs" d="M137.058,32.5L141.058,32.5L141.058,40.833L137.058,40.833L137.058,32.5ZM137.058,49.167L141.058,49.167L141.058,65.833L137.058,65.833L137.058,49.167ZM137.058,74.167L141.058,74.167L141.058,90.834L137.058,90.834L137.058,74.167ZM137.058,99.166L141.058,99.166L141.058,115.833L137.058,115.833L137.058,99.166ZM137.058,124.167L141.058,124.167L141.058,140.833L137.058,140.833L137.058,124.167ZM137.058,149.166L141.058,149.166L141.058,165.833L137.058,165.833L137.058,149.166ZM137.058,174.167L141.058,174.167L141.058,190.833L137.058,190.833L137.058,174.167ZM137.058,199.167L141.058,199.167L141.058,215.833L137.058,215.833L137.058,199.167ZM137.058,224.167L141.058,224.167L141.058,240.834L137.058,240.834L137.058,224.167ZM137.058,249.167L141.058,249.167L141.058,265.833L137.058,265.833L137.058,249.167ZM137.058,274.167L141.058,274.167L141.058,290.833L137.058,290.833L137.058,274.167ZM137.058,299.166L141.058,299.166L141.058,315.833L137.058,315.833L137.058,299.166ZM137.058,324.166L141.058,324.166L141.058,340.833L137.058,340.833L137.058,324.166ZM137.058,349.167L141.058,349.167L141.058,365.833L137.058,365.833L137.058,349.167ZM137.058,374.166L141.058,374.166L141.058,390.833L137.058,390.833L137.058,374.166ZM137.058,399.167L141.058,399.167L141.058,415.833L137.058,415.833L137.058,399.167ZM137.058,424.167L141.058,424.167L141.058,432.5L137.058,432.5L137.058,424.167Z" style="fill:#f40000;"/>
            </g>
        </g>
    </g>
    <defs>
        <radialGradient id="edgeViz___Radial1" cx="0" cy="0" r="1" gradientUnits="userSpaceOnUse" gradientTransform="matrix(0,-9.583486,-9.583486,-0,234.148514,234.512371)"><stop offset="0" style="stop-color:#ff7e7e;stop-opacity:1"/><stop offset="0.7" style="stop-color:#ef4444;stop-opacity:1"/><stop offset="1" style="stop-color:#8a1c1c;stop-opacity:1"/></radialGradient>
        <radialGradient id="edgeViz___Radial2" cx="0" cy="0" r="1" gradientUnits="userSpaceOnUse" gradientTransform="matrix(0,-9.583486,-9.583486,-0,234.627514,234.512371)"><stop offset="0" style="stop-color:#ff7e7e;stop-opacity:1"/><stop offset="0.7" style="stop-color:#ef4444;stop-opacity:1"/><stop offset="1" style="stop-color:#8a1c1c;stop-opacity:1"/></radialGradient>
        <radialGradient id="edgeViz___Radial3" cx="0" cy="0" r="1" gradientUnits="userSpaceOnUse" gradientTransform="matrix(0,-9.583486,-9.583486,0,234.148514,234.416601)"><stop offset="0" style="stop-color:#ff7e7e;stop-opacity:1"/><stop offset="0.7" style="stop-color:#ef4444;stop-opacity:1"/><stop offset="1" style="stop-color:#8a1c1c;stop-opacity:1"/></radialGradient>
        <radialGradient id="edgeViz___Radial4" cx="0" cy="0" r="1" gradientUnits="userSpaceOnUse" gradientTransform="matrix(0,-9.583486,-9.583486,0,234.148514,234.416601)"><stop offset="0" style="stop-color:#ff7e7e;stop-opacity:1"/><stop offset="0.7" style="stop-color:#ef4444;stop-opacity:1"/><stop offset="1" style="stop-color:#8a1c1c;stop-opacity:1"/></radialGradient>
    </defs>
</svg>
